<svg xmlns="http://www.w3.org/2000/svg" width="53.705" height="53.706" xmlns:xlink="http://www.w3.org/1999/xlink"><defs><linearGradient id="a" x1=".895" x2=".075" y1=".105" y2=".925" gradientUnits="objectBoundingBox"><stop offset="0" stop-color="#3a32b8"/><stop offset="1" stop-color="#4e66ff"/></linearGradient><linearGradient id="b" x1="1.966" x2="-.988" y1="-.22" y2="1.322" xlink:href="#a"/></defs><g><path fill="url(#a)" d="M247.1 607.27h-20.8a16.47 16.47 0 0 1-16.45-16.44v-20.8a16.47 16.47 0 0 1 16.45-16.46h20.8A16.47 16.47 0 0 1 263.57 570v20.82a16.47 16.47 0 0 1-16.46 16.45zm-20.8-51.7A14.47 14.47 0 0 0 211.85 570v20.82a14.47 14.47 0 0 0 14.45 14.46h20.8a14.47 14.47 0 0 0 14.46-14.45v-20.8a14.47 14.47 0 0 0-14.45-14.47z" transform="translate(-209.848 -553.567)"/></g><path fill="url(#b)" d="M246.82 568.16l-4.18-.1a6.13 6.13 0 0 0-6.26 6.13v3.95h-3.88a.3.3 0 0 0-.3.3v4.97a.3.3 0 0 0 .3.3h3.88v12.6a.3.3 0 0 0 .3.3h5.13a.3.3 0 0 0 .3-.3v-12.6h3.92a.3.3 0 0 0 .28-.26l.65-4.98a.3.3 0 0 0-.3-.33h-4.55v-2.5a2.88 2.88 0 0 1 .53-1.94 1.57 1.57 0 0 1 1.23-.47h2.96a.3.3 0 0 0 .3-.3v-4.5a.3.3 0 0 0-.3-.27z" transform="translate(-212.803 -555.483)"/></svg>