<svg xmlns="http://www.w3.org/2000/svg" width="53.705" height="53.705" xmlns:xlink="http://www.w3.org/1999/xlink"><defs><linearGradient id="a" x1=".894" x2=".136" y1=".106" y2=".864" gradientUnits="objectBoundingBox"><stop offset="0" stop-color="#ff1359"/><stop offset="1" stop-color="#940b34"/></linearGradient><linearGradient id="b" x1="1.216" x2="-.161" y1="-.455" y2="1.382" xlink:href="#a"/></defs><g><path fill="url(#a)" d="M155.4 609.57h-20.82a16.47 16.47 0 0 1-16.45-16.45v-20.8a16.47 16.47 0 0 1 16.45-16.45h20.8a16.47 16.47 0 0 1 16.46 16.44v20.82a16.47 16.47 0 0 1-16.45 16.45zm-20.82-51.7a14.47 14.47 0 0 0-14.45 14.44v20.82a14.47 14.47 0 0 0 14.45 14.46h20.8a14.47 14.47 0 0 0 14.46-14.46v-20.8a14.47 14.47 0 0 0-14.45-14.46z" transform="translate(-118.133 -555.866)"/></g><path fill="url(#b)" d="M155.78 574.03h-17.9a5.83 5.83 0 0 0-5.84 5.84v10.5a5.83 5.83 0 0 0 5.83 5.84h17.9a5.83 5.83 0 0 0 5.84-5.83v-10.5a5.83 5.83 0 0 0-5.82-5.84zm-12.6 15.95v-9.72a1 1 0 0 1 1.5-.85l8.12 4.87a1 1 0 0 1 0 1.7l-8.12 4.86a1 1 0 0 1-1.5-.85z" transform="translate(-119.971 -558.268)"/></svg>