<svg xmlns="http://www.w3.org/2000/svg" width="53.705" height="53.706" xmlns:xlink="http://www.w3.org/1999/xlink"><defs><linearGradient id="a" x1=".963" x2="-.066" y1=".037" y2="1.066" gradientUnits="objectBoundingBox"><stop offset="0" stop-color="#ff5209"/><stop offset="1" stop-color="#ff8c09"/></linearGradient><linearGradient id="b" x1="1.625" x2="-1.037" y1="-.5" y2="1.595" xlink:href="#a"/></defs><g><path fill="url(#a)" d="M336.35 607.27h-20.8a16.47 16.47 0 0 1-16.46-16.44v-20.8a16.47 16.47 0 0 1 16.44-16.46h20.8A16.47 16.47 0 0 1 352.8 570v20.82a16.47 16.47 0 0 1-16.45 16.45zm-20.8-51.7A14.47 14.47 0 0 0 301.08 570v20.82a14.47 14.47 0 0 0 14.44 14.46h20.8a14.47 14.47 0 0 0 14.46-14.45v-20.8a14.47 14.47 0 0 0-14.45-14.47z" transform="translate(-299.091 -553.567)"/></g><path fill="url(#b)" d="M326.8 586.63a5.72 5.72 0 0 0 5.32 1.88 7.57 7.57 0 0 0 4.8-3.18 11.27 11.27 0 0 0 1.88-5.55v-.1a9.53 9.53 0 0 0-5.4-9.5c-4.03-1.73-9.68-.84-12.64 2.53a12.1 12.1 0 0 0-2.2 3.75 6.98 6.98 0 0 0 .05 5.25 5.5 5.5 0 0 0 1.4 2c.14.13 1.96 1.32 2.02 1.13.18-.62.38-1.33.57-1.98a.9.9 0 0 0-.17-.82 5.33 5.33 0 0 1-.9-4.58 7.26 7.26 0 0 1 3.18-4.05 6.86 6.86 0 0 1 7.15-.2c2.73 1.63 3.18 5.1 2.53 8a7.28 7.28 0 0 1-1.3 3 3.7 3.7 0 0 1-2.92 1.46 2.34 2.34 0 0 1-2.14-2.95l.98-3.66a3.23 3.23 0 0 0-.17-2.97 2.25 2.25 0 0 0-2.02-.8 3.27 3.27 0 0 0-2.66 2.9 6.75 6.75 0 0 0 .56 3.47l-1.92 7.7a10.72 10.72 0 0 0-.3 3.46l.22 2.6a.3.3 0 0 0 .57.15l1.36-2.12a10.73 10.73 0 0 0 1.43-3.47z" transform="translate(-301.599 -555.648)"/></svg>