<svg xmlns="http://www.w3.org/2000/svg" xmlns:xlink="http://www.w3.org/1999/xlink" width="57.626" height="57.626" data-name="Group 648"><defs><linearGradient id="a" x1=".947" x2=".045" y1=".053" y2=".955" gradientUnits="objectBoundingBox"><stop offset="0" stop-color="#66e8ff"/><stop offset="1" stop-color="#66adff"/></linearGradient><linearGradient id="b" x1="1.217" x2="-.404" y1="-.54" y2="1.354" xlink:href="#a"/></defs><g data-name="Group 647"><path fill="url(#a)" d="M310.43 98.74H288.1a17.67 17.67 0 01-17.65-17.64V58.77a17.67 17.67 0 0117.65-17.65h22.33a17.67 17.67 0 0117.65 17.64V81.1a17.67 17.67 0 01-17.65 17.64zM288.1 43.26a15.53 15.53 0 00-15.5 15.5V81.1a15.53 15.53 0 0015.5 15.5h22.33a15.53 15.53 0 0015.5-15.5V58.76a15.53 15.53 0 00-15.5-15.51z" data-name="Path 4793" transform="translate(-270.448 -41.117)"/></g><path fill="url(#b)" d="M312.85 62.06a7.92 7.92 0 002.52-3.41 13.4 13.4 0 01-4.07 1.2 6.7 6.7 0 00-11.62 6.28h-.05c-9.93-.68-13.96-7.05-13.96-7.05s-2.45 5.05 1.53 9.02a4 4 0 01-2.28-.58s-.83 4.3 4.6 6.62a7.5 7.5 0 01-2.38.26 7.25 7.25 0 006.14 4.58s-2.03 2.57-9.1 3.06a19.1 19.1 0 0023.1-2.69s4.96-4.2 5.58-12.65l3.38-5.4z" data-name="Path 4794" transform="translate(-271.393 -42.232)"/></svg>